<?xml version="1.0" encoding="UTF-8"?>
<svg xmlns="http://www.w3.org/2000/svg" xmlns:xlink="http://www.w3.org/1999/xlink" width="px" height="px" viewBox="0 0 128 108" version="1.1">
<g id="surface1">
<path style=" stroke:none;fill-rule:evenodd;fill:rgb(21.176471%,27.058824%,28.235294%);fill-opacity:1;" d="M 19.308594 87.398438 L 19.308594 79.175781 C 19.308594 78.097656 19.980469 77.230469 21.09375 77.230469 L 21.402344 77.230469 C 22.515625 77.230469 23.183594 78.097656 23.183594 79.175781 L 23.183594 96.480469 C 23.183594 100.699219 21.109375 104.058594 17.492188 106.195312 C 15.835938 107.183594 13.945312 107.699219 12.019531 107.695312 L 11.25 107.695312 C 7.050781 107.695312 3.710938 105.609375 1.578125 101.980469 C 0.597656 100.316406 0.0820312 98.414062 0.0898438 96.480469 L 0.0898438 95.710938 C 0.0898438 91.488281 2.164062 88.132812 5.777344 85.988281 C 7.433594 85.003906 9.324219 84.484375 11.25 84.492188 L 12.019531 84.492188 C 14.863281 84.492188 17.269531 85.597656 19.308594 87.394531 Z M 3.960938 96.09375 C 3.960938 99.144531 5.433594 101.433594 8.089844 102.894531 C 9.164062 103.488281 10.332031 103.804688 11.558594 103.804688 C 14.539062 103.804688 16.746094 102.398438 18.269531 99.859375 C 18.976562 98.679688 19.308594 97.386719 19.308594 96.015625 C 19.308594 93.375 18.058594 91.3125 15.941406 89.78125 C 14.65625 88.851562 13.210938 88.386719 11.632812 88.386719 C 8.386719 88.386719 6.050781 90.035156 4.648438 92.960938 C 4.175781 93.949219 3.960938 95 3.960938 96.09375 Z M 36.625 84.492188 L 37.160156 84.492188 C 41.648438 84.492188 45.0625 86.679688 47.226562 90.617188 C 48.09375 92.191406 48.554688 93.910156 48.554688 95.710938 L 48.554688 96.480469 C 48.554688 100.699219 46.484375 104.0625 42.863281 106.199219 C 41.1875 107.1875 39.335938 107.695312 37.390625 107.695312 L 36.625 107.695312 C 32.421875 107.695312 29.085938 105.609375 26.953125 101.980469 C 25.96875 100.316406 25.453125 98.417969 25.460938 96.480469 L 25.460938 95.710938 C 25.460938 91.488281 27.542969 88.144531 31.148438 85.992188 C 32.804688 85 34.695312 84.480469 36.625 84.492188 Z M 29.335938 96.09375 C 29.335938 99.058594 30.785156 101.230469 33.265625 102.761719 C 34.433594 103.480469 35.714844 103.804688 37.085938 103.804688 C 39.996094 103.804688 42.148438 102.324219 43.644531 99.855469 C 44.359375 98.679688 44.679688 97.386719 44.679688 96.015625 C 44.679688 93.265625 43.363281 91.164062 41.105469 89.640625 C 39.898438 88.8125 38.46875 88.375 37.007812 88.386719 C 33.761719 88.386719 31.425781 90.035156 30.023438 92.960938 C 29.550781 93.949219 29.335938 95 29.335938 96.09375 Z M 64.660156 88.695312 C 64.078125 88.421875 62.980469 88.332031 62.351562 88.304688 C 59.113281 88.183594 56.769531 90.015625 55.398438 92.882812 C 54.921875 93.875 54.707031 94.921875 54.707031 96.015625 C 54.707031 99.351562 56.449219 101.683594 59.40625 103.105469 C 60.488281 103.625 61.886719 103.726562 63.066406 103.726562 C 64.109375 103.726562 65.578125 103.085938 66.5 102.644531 L 66.660156 102.570312 L 67.378906 102.570312 L 67.457031 102.585938 C 68.335938 102.769531 69.003906 103.332031 69.003906 104.28125 L 69.003906 104.667969 C 69.003906 107.039062 64.691406 107.582031 63.046875 107.695312 C 57.246094 108.097656 52.898438 104.898438 51.246094 99.332031 C 50.957031 98.367188 50.828125 97.410156 50.828125 96.402344 L 50.828125 95.632812 C 50.828125 91.410156 52.914062 88.066406 56.515625 85.917969 C 58.167969 84.921875 60.0625 84.402344 61.992188 84.410156 L 62.757812 84.410156 C 64.824219 84.410156 66.726562 85 68.429688 86.167969 L 68.570312 86.265625 L 68.660156 86.414062 C 68.84375 86.714844 69.003906 87.074219 69.003906 87.4375 L 69.003906 87.824219 C 69.003906 88.816406 68.261719 89.351562 67.367188 89.523438 L 67.296875 89.539062 L 67.066406 89.539062 C 66.488281 89.539062 65.171875 88.9375 64.65625 88.691406 Z M 77.230469 91.332031 L 81.773438 86.820312 C 82.195312 86.402344 83.808594 84.644531 84.441406 84.644531 L 85.136719 84.644531 L 85.214844 84.660156 C 86.101562 84.847656 86.761719 85.410156 86.761719 86.363281 L 86.761719 86.746094 C 86.761719 87.398438 86.003906 88.15625 85.585938 88.605469 C 84.695312 89.554688 83.757812 90.472656 82.847656 91.398438 L 78.164062 96.171875 L 84.195312 102.277344 C 84.746094 102.84375 85.296875 103.410156 85.84375 103.984375 C 86.035156 104.1875 86.320312 104.4375 86.480469 104.722656 C 86.65625 104.988281 86.761719 105.285156 86.761719 105.601562 L 86.761719 106.003906 L 86.738281 106.097656 C 86.523438 106.984375 85.960938 107.703125 84.980469 107.703125 L 84.671875 107.703125 C 84.03125 107.703125 83.308594 106.972656 82.867188 106.558594 C 81.96875 105.699219 81.089844 104.796875 80.203125 103.921875 L 77.230469 100.988281 L 77.230469 105.679688 C 77.230469 106.757812 76.554688 107.625 75.445312 107.625 L 75.144531 107.625 C 74.03125 107.625 73.359375 106.757812 73.359375 105.679688 L 73.359375 79.257812 C 73.359375 78.179688 74.03125 77.3125 75.144531 77.3125 L 75.445312 77.3125 C 76.554688 77.3125 77.230469 78.179688 77.230469 79.257812 L 77.230469 91.335938 Z M 125.515625 84.644531 L 125.902344 84.644531 C 127.066406 84.644531 127.839844 85.433594 127.839844 86.59375 C 127.839844 88.203125 126.304688 88.617188 124.980469 88.617188 C 123.238281 88.617188 121.578125 89.675781 120.378906 90.863281 C 118.878906 92.34375 118.230469 94.242188 118.230469 96.328125 L 118.230469 105.75 C 118.230469 106.832031 117.558594 107.699219 116.445312 107.699219 L 116.136719 107.699219 C 115.023438 107.699219 114.351562 106.832031 114.351562 105.75 L 114.351562 95.785156 C 114.351562 91.960938 116.207031 88.835938 119.304688 86.644531 C 121.152344 85.335938 123.261719 84.648438 125.523438 84.648438 Z M 97.980469 103.320312 C 99.390625 103.816406 100.996094 103.742188 102.445312 103.492188 C 103.183594 103.175781 105.078125 102.34375 105.773438 102.46875 L 105.882812 102.484375 L 105.980469 102.535156 C 106.40625 102.742188 106.8125 103.035156 107.027344 103.46875 C 107.535156 104.488281 107.292969 105.511719 106.296875 106.089844 L 105.964844 106.28125 C 102.289062 108.414062 98.378906 108.117188 94.71875 106.125 C 92.964844 105.175781 91.625 103.761719 90.636719 102.042969 L 90.40625 101.640625 C 88.046875 97.535156 88.363281 93.21875 91.027344 89.3125 C 91.945312 87.964844 93.144531 86.921875 94.546875 86.105469 L 95.078125 85.796875 C 98.539062 83.789062 102.25 83.929688 105.804688 85.691406 C 107.714844 86.636719 109.265625 88.050781 110.332031 89.90625 L 110.523438 90.242188 C 111.296875 91.589844 110.292969 92.765625 109.257812 93.570312 C 108.054688 94.503906 106.839844 95.628906 105.6875 96.625 Z M 94.652344 100.972656 L 106.304688 90.90625 C 105.523438 89.917969 104.21875 89.207031 103.113281 88.78125 C 100.878906 87.925781 98.675781 88.214844 96.625 89.402344 C 93.941406 90.960938 92.800781 93.4375 92.898438 96.519531 C 92.941406 97.734375 93.265625 98.90625 93.90625 99.941406 C 94.132812 100.304688 94.386719 100.644531 94.65625 100.972656 Z M 73.742188 22.972656 L 85.175781 22.972656 L 85.175781 34.714844 L 90.957031 34.714844 C 93.628906 34.714844 96.371094 34.238281 98.902344 33.375 C 100.144531 32.953125 101.535156 32.363281 102.761719 31.617188 C 101.148438 29.5 100.324219 26.828125 100.082031 24.195312 C 99.753906 20.609375 100.472656 15.945312 102.886719 13.140625 L 104.089844 11.742188 L 105.519531 12.898438 C 109.121094 15.808594 112.160156 19.882812 112.691406 24.511719 C 117.035156 23.230469 122.132812 23.535156 125.957031 25.753906 L 127.527344 26.664062 L 126.703125 28.28125 C 123.46875 34.632812 116.699219 36.597656 110.085938 36.25 C 100.1875 61.015625 78.636719 72.746094 52.507812 72.746094 C 39.007812 72.746094 26.621094 67.675781 19.570312 55.644531 L 19.453125 55.441406 L 18.425781 53.34375 C 16.042969 48.046875 15.25 42.242188 15.785156 36.445312 L 15.949219 34.710938 L 25.726562 34.710938 L 25.726562 22.972656 L 37.15625 22.972656 L 37.15625 11.484375 L 60.023438 11.484375 L 60.023438 0 L 73.742188 0 L 73.742188 22.972656 "/>
<path style=" stroke:none;fill-rule:evenodd;fill:rgb(13.333333%,62.745098%,78.431373%);fill-opacity:1;" d="M 110.785156 27.316406 C 111.550781 21.332031 107.09375 16.628906 104.328125 14.398438 C 101.140625 18.097656 100.648438 27.796875 105.644531 31.882812 C 102.855469 34.371094 96.976562 36.628906 90.957031 36.628906 L 17.683594 36.628906 C 17.101562 42.941406 18.203125 48.753906 20.722656 53.730469 L 21.554688 55.261719 C 22.082031 56.160156 22.660156 57.03125 23.285156 57.867188 C 26.296875 58.058594 29.074219 58.125 31.613281 58.070312 L 31.617188 58.070312 C 36.609375 57.960938 40.683594 57.367188 43.773438 56.292969 C 44.226562 56.148438 44.710938 56.394531 44.863281 56.847656 C 45.019531 57.296875 44.792969 57.792969 44.347656 57.960938 C 43.9375 58.105469 43.507812 58.238281 43.066406 58.367188 C 40.632812 59.070312 38.027344 59.535156 34.664062 59.742188 C 34.863281 59.746094 34.453125 59.773438 34.453125 59.773438 C 34.339844 59.78125 34.195312 59.796875 34.078125 59.804688 C 32.757812 59.878906 31.328125 59.894531 29.867188 59.894531 C 28.269531 59.894531 26.695312 59.863281 24.933594 59.773438 L 24.886719 59.804688 C 30.984375 66.695312 40.535156 70.832031 52.503906 70.832031 C 77.824219 70.832031 99.304688 59.554688 108.816406 34.234375 C 115.566406 34.929688 122.050781 33.199219 125 27.414062 C 120.300781 24.691406 114.257812 25.558594 110.78125 27.316406 "/>
<path style=" stroke:none;fill-rule:evenodd;fill:rgb(21.568627%,69.411765%,85.098039%);fill-opacity:1;" d="M 110.785156 27.316406 C 111.550781 21.332031 107.09375 16.628906 104.328125 14.398438 C 101.140625 18.097656 100.648438 27.796875 105.644531 31.882812 C 102.855469 34.371094 96.976562 36.628906 90.957031 36.628906 L 22.023438 36.628906 C 21.726562 46.296875 25.296875 53.632812 31.613281 58.070312 L 31.617188 58.070312 C 36.609375 57.960938 40.683594 57.367188 43.773438 56.292969 C 44.226562 56.148438 44.710938 56.394531 44.863281 56.847656 C 45.019531 57.296875 44.792969 57.792969 44.347656 57.960938 C 43.9375 58.105469 43.507812 58.238281 43.066406 58.367188 C 40.632812 59.070312 37.800781 59.59375 34.4375 59.804688 C 34.4375 59.804688 34.355469 59.726562 34.355469 59.726562 C 42.972656 64.167969 55.472656 64.144531 69.796875 58.621094 C 85.863281 52.421875 100.8125 40.609375 111.25 27.097656 C 111.09375 27.167969 110.941406 27.238281 110.789062 27.316406 "/>
<path style=" stroke:none;fill-rule:evenodd;fill:rgb(10.588235%,50.588235%,64.705882%);fill-opacity:1;" d="M 17.824219 44.296875 C 18.273438 47.679688 19.261719 50.847656 20.722656 53.730469 L 21.554688 55.261719 C 22.082031 56.160156 22.660156 57.03125 23.285156 57.867188 C 26.296875 58.058594 29.074219 58.128906 31.617188 58.070312 C 36.609375 57.960938 40.683594 57.367188 43.773438 56.292969 C 44.226562 56.152344 44.710938 56.394531 44.863281 56.847656 C 45.019531 57.296875 44.792969 57.792969 44.347656 57.964844 C 43.9375 58.105469 43.507812 58.242188 43.066406 58.367188 C 40.632812 59.070312 37.816406 59.566406 34.453125 59.773438 C 34.339844 59.78125 34.136719 59.78125 34.019531 59.789062 C 32.695312 59.863281 31.28125 59.910156 29.820312 59.910156 C 28.15625 59.914062 26.492188 59.871094 24.832031 59.789062 C 30.929688 66.683594 40.539062 70.828125 52.507812 70.828125 C 74.1875 70.828125 93.050781 62.5625 103.996094 44.292969 L 17.824219 44.292969 "/>
<path style=" stroke:none;fill-rule:evenodd;fill:rgb(11.372549%,56.862745%,70.588235%);fill-opacity:1;" d="M 22.683594 44.296875 C 23.980469 50.234375 27.09375 54.898438 31.617188 58.070312 C 36.609375 57.960938 40.683594 57.367188 43.773438 56.292969 C 44.226562 56.152344 44.710938 56.394531 44.863281 56.847656 C 45.019531 57.296875 44.792969 57.792969 44.347656 57.964844 C 43.9375 58.105469 43.507812 58.242188 43.066406 58.367188 C 40.632812 59.070312 37.757812 59.566406 34.394531 59.773438 C 43.011719 64.214844 55.472656 64.152344 69.792969 58.621094 C 78.460938 55.277344 86.800781 50.296875 94.285156 44.296875 L 22.683594 44.296875 "/>
<path style=" stroke:none;fill-rule:evenodd;fill:rgb(13.72549%,63.921569%,76.078431%);fill-opacity:1;" d="M 27.628906 24.886719 L 37.539062 24.886719 L 37.539062 34.839844 L 27.628906 34.839844 Z M 28.453125 25.714844 L 29.238281 25.714844 L 29.238281 34.007812 L 28.449219 34.007812 L 28.449219 25.714844 Z M 29.925781 25.714844 L 30.738281 25.714844 L 30.738281 34.007812 L 29.925781 34.007812 Z M 31.425781 25.714844 L 32.238281 25.714844 L 32.238281 34.007812 L 31.425781 34.007812 Z M 32.929688 25.714844 L 33.742188 25.714844 L 33.742188 34.007812 L 32.929688 34.007812 Z M 34.429688 25.714844 L 35.242188 25.714844 L 35.242188 34.007812 L 34.429688 34.007812 Z M 35.929688 25.714844 L 36.714844 25.714844 L 36.714844 34.007812 L 35.929688 34.007812 Z M 39.0625 13.402344 L 48.972656 13.402344 L 48.972656 23.355469 L 39.0625 23.355469 Z M 39.886719 14.230469 L 40.671875 14.230469 L 40.671875 22.527344 L 39.886719 22.527344 Z M 41.359375 14.230469 L 42.171875 14.230469 L 42.171875 22.527344 L 41.359375 22.527344 Z M 42.859375 14.230469 L 43.671875 14.230469 L 43.671875 22.527344 L 42.859375 22.527344 Z M 44.359375 14.230469 L 45.175781 14.230469 L 45.175781 22.527344 L 44.359375 22.527344 Z M 45.863281 14.230469 L 46.675781 14.230469 L 46.675781 22.527344 L 45.863281 22.527344 Z M 47.363281 14.230469 L 48.148438 14.230469 L 48.148438 22.527344 L 47.363281 22.527344 Z M 47.363281 14.230469 "/>
<path style=" stroke:none;fill-rule:evenodd;fill:rgb(20.392157%,73.333333%,87.058824%);fill-opacity:1;" d="M 39.0625 24.886719 L 48.972656 24.886719 L 48.972656 34.839844 L 39.0625 34.839844 Z M 39.890625 25.714844 L 40.671875 25.714844 L 40.671875 34.007812 L 39.890625 34.007812 Z M 41.359375 25.714844 L 42.171875 25.714844 L 42.171875 34.007812 L 41.359375 34.007812 Z M 42.859375 25.714844 L 43.671875 25.714844 L 43.671875 34.007812 L 42.859375 34.007812 Z M 44.363281 25.714844 L 45.175781 25.714844 L 45.175781 34.007812 L 44.363281 34.007812 Z M 45.863281 25.714844 L 46.675781 25.714844 L 46.675781 34.007812 L 45.863281 34.007812 Z M 47.363281 25.714844 L 48.148438 25.714844 L 48.148438 34.007812 L 47.363281 34.007812 Z M 47.363281 25.714844 "/>
<path style=" stroke:none;fill-rule:evenodd;fill:rgb(13.72549%,63.921569%,76.078431%);fill-opacity:1;" d="M 50.496094 24.886719 L 60.40625 24.886719 L 60.40625 34.839844 L 50.496094 34.839844 Z M 51.320312 25.714844 L 52.101562 25.714844 L 52.101562 34.007812 L 51.320312 34.007812 Z M 52.792969 25.714844 L 53.605469 25.714844 L 53.605469 34.007812 L 52.792969 34.007812 Z M 54.292969 25.714844 L 55.105469 25.714844 L 55.105469 34.007812 L 54.292969 34.007812 Z M 55.792969 25.714844 L 56.609375 25.714844 L 56.609375 34.007812 L 55.800781 34.007812 L 55.800781 25.714844 Z M 57.296875 25.714844 L 58.109375 25.714844 L 58.109375 34.007812 L 57.296875 34.007812 Z M 58.796875 25.714844 L 59.578125 25.714844 L 59.578125 34.007812 L 58.796875 34.007812 Z M 58.796875 25.714844 "/>
<path style=" stroke:none;fill-rule:evenodd;fill:rgb(20.392157%,73.333333%,87.058824%);fill-opacity:1;" d="M 50.496094 13.402344 L 60.40625 13.402344 L 60.40625 23.355469 L 50.496094 23.355469 Z M 51.320312 14.230469 L 52.101562 14.230469 L 52.101562 22.527344 L 51.320312 22.527344 Z M 52.792969 14.230469 L 53.605469 14.230469 L 53.605469 22.527344 L 52.792969 22.527344 Z M 54.292969 14.230469 L 55.105469 14.230469 L 55.105469 22.527344 L 54.292969 22.527344 Z M 55.792969 14.230469 L 56.609375 14.230469 L 56.609375 22.527344 L 55.800781 22.527344 L 55.800781 14.230469 Z M 57.296875 14.230469 L 58.109375 14.230469 L 58.109375 22.527344 L 57.296875 22.527344 Z M 58.796875 14.230469 L 59.578125 14.230469 L 59.578125 22.527344 L 58.796875 22.527344 Z M 61.929688 24.886719 L 71.839844 24.886719 L 71.839844 34.839844 L 61.929688 34.839844 Z M 62.753906 25.714844 L 63.535156 25.714844 L 63.535156 34.007812 L 62.75 34.007812 L 62.75 25.714844 Z M 64.226562 25.714844 L 65.039062 25.714844 L 65.039062 34.007812 L 64.226562 34.007812 Z M 65.726562 25.714844 L 66.539062 25.714844 L 66.539062 34.007812 L 65.726562 34.007812 Z M 67.226562 25.714844 L 68.039062 25.714844 L 68.039062 34.007812 L 67.226562 34.007812 Z M 68.730469 25.714844 L 69.542969 25.714844 L 69.542969 34.007812 L 68.730469 34.007812 Z M 70.230469 25.714844 L 71.011719 25.714844 L 71.011719 34.007812 L 70.230469 34.007812 Z M 70.230469 25.714844 "/>
<path style=" stroke:none;fill-rule:evenodd;fill:rgb(13.72549%,63.921569%,76.078431%);fill-opacity:1;" d="M 61.929688 13.402344 L 71.839844 13.402344 L 71.839844 23.355469 L 61.929688 23.355469 Z M 62.757812 14.230469 L 63.539062 14.230469 L 63.539062 22.527344 L 62.757812 22.527344 Z M 64.226562 14.230469 L 65.039062 14.230469 L 65.039062 22.527344 L 64.226562 22.527344 Z M 65.726562 14.230469 L 66.539062 14.230469 L 66.539062 22.527344 L 65.726562 22.527344 Z M 67.226562 14.230469 L 68.042969 14.230469 L 68.042969 22.527344 L 67.226562 22.527344 Z M 68.730469 14.230469 L 69.542969 14.230469 L 69.542969 22.527344 L 68.730469 22.527344 Z M 70.230469 14.230469 L 71.011719 14.230469 L 71.011719 22.527344 L 70.230469 22.527344 Z M 70.230469 14.230469 "/>
<path style=" stroke:none;fill-rule:evenodd;fill:rgb(20.392157%,73.333333%,87.058824%);fill-opacity:1;" d="M 61.929688 1.910156 L 71.839844 1.910156 L 71.839844 11.863281 L 61.929688 11.863281 Z M 62.757812 2.738281 L 63.539062 2.738281 L 63.539062 11.035156 L 62.757812 11.035156 Z M 64.226562 2.738281 L 65.039062 2.738281 L 65.039062 11.035156 L 64.226562 11.035156 Z M 65.726562 2.738281 L 66.539062 2.738281 L 66.539062 11.035156 L 65.726562 11.035156 Z M 67.226562 2.738281 L 68.042969 2.738281 L 68.042969 11.035156 L 67.226562 11.035156 Z M 68.730469 2.738281 L 69.542969 2.738281 L 69.542969 11.035156 L 68.730469 11.035156 Z M 70.230469 2.738281 L 71.011719 2.738281 L 71.011719 11.035156 L 70.230469 11.035156 Z M 70.230469 2.738281 "/>
<path style=" stroke:none;fill-rule:evenodd;fill:rgb(13.72549%,63.921569%,76.078431%);fill-opacity:1;" d="M 73.363281 24.886719 L 83.273438 24.886719 L 83.273438 34.839844 L 73.363281 34.839844 Z M 74.1875 25.714844 L 74.96875 25.714844 L 74.96875 34.007812 L 74.1875 34.007812 Z M 75.65625 25.714844 L 76.472656 25.714844 L 76.472656 34.007812 L 75.65625 34.007812 Z M 77.160156 25.714844 L 77.972656 25.714844 L 77.972656 34.007812 L 77.160156 34.007812 Z M 78.660156 25.714844 L 79.472656 25.714844 L 79.472656 34.007812 L 78.660156 34.007812 Z M 80.164062 25.714844 L 80.976562 25.714844 L 80.976562 34.007812 L 80.164062 34.007812 Z M 81.664062 25.714844 L 82.445312 25.714844 L 82.445312 34.007812 L 81.664062 34.007812 Z M 81.664062 25.714844 "/>
<path style=" stroke:none;fill-rule:evenodd;fill:rgb(82.745098%,92.54902%,92.54902%);fill-opacity:1;" d="M 48.351562 50.980469 C 49.335938 50.96875 50.253906 51.488281 50.75 52.34375 C 51.246094 53.199219 51.246094 54.257812 50.75 55.113281 C 50.253906 55.96875 49.335938 56.488281 48.351562 56.476562 C 46.855469 56.453125 45.652344 55.230469 45.65625 53.726562 C 45.65625 52.226562 46.855469 51.003906 48.351562 50.980469 "/>
<path style=" stroke:none;fill-rule:evenodd;fill:rgb(21.176471%,27.058824%,28.235294%);fill-opacity:1;" d="M 48.351562 51.761719 C 48.59375 51.761719 48.835938 51.804688 49.058594 51.894531 C 48.75 52.078125 48.597656 52.445312 48.691406 52.796875 C 48.78125 53.144531 49.097656 53.390625 49.460938 53.390625 C 49.761719 53.390625 50.023438 53.222656 50.160156 52.972656 C 50.492188 53.773438 50.261719 54.699219 49.59375 55.246094 C 48.929688 55.796875 47.984375 55.84375 47.265625 55.363281 C 46.546875 54.882812 46.230469 53.988281 46.480469 53.15625 C 46.730469 52.328125 47.488281 51.761719 48.351562 51.761719 M 0 45.289062 L 127.164062 45.289062 C 124.394531 44.585938 118.402344 43.632812 119.390625 39.984375 C 114.355469 45.839844 102.214844 44.09375 99.152344 41.207031 C 95.738281 46.179688 75.875 44.289062 74.488281 40.414062 C 70.210938 45.457031 56.953125 45.457031 52.675781 40.414062 C 51.289062 44.28125 31.425781 46.179688 28.011719 41.207031 C 24.949219 44.09375 12.8125 45.839844 7.773438 39.988281 C 8.761719 43.632812 2.769531 44.585938 0 45.292969 "/>
<path style=" stroke:none;fill-rule:evenodd;fill:rgb(74.117647%,85.098039%,84.313725%);fill-opacity:1;" d="M 55.617188 70.777344 C 48.847656 67.550781 45.132812 63.164062 43.066406 58.375 C 40.550781 59.09375 37.527344 59.554688 34.015625 59.753906 C 32.691406 59.828125 31.300781 59.867188 29.839844 59.867188 C 28.15625 59.867188 26.382812 59.816406 24.519531 59.714844 C 30.726562 65.945312 38.363281 70.75 52.507812 70.835938 C 53.550781 70.835938 54.585938 70.816406 55.617188 70.777344 "/>
<path style=" stroke:none;fill-rule:evenodd;fill:rgb(82.745098%,92.54902%,92.54902%);fill-opacity:1;" d="M 45.578125 62.789062 C 44.644531 61.511719 43.730469 59.90625 43.066406 58.367188 C 40.550781 59.089844 37.527344 59.550781 34.015625 59.75 C 36.429688 61.066406 39.878906 62.285156 45.582031 62.789062 "/>
</g>
</svg>
