<?xml version="1.0" encoding="UTF-8"?>
<svg xmlns="http://www.w3.org/2000/svg" xmlns:xlink="http://www.w3.org/1999/xlink" width="px" height="px" viewBox="0 0 60 30" version="1.1">
<g id="surface1">
<path style=" stroke:none;fill-rule:evenodd;fill:rgb(0%,40.392157%,54.901961%);fill-opacity:1;" d="M 9 22.523438 L 10.40625 22.523438 L 10.40625 16.953125 L 12.601562 21.808594 C 12.851562 22.390625 13.207031 22.609375 13.898438 22.609375 C 14.589844 22.609375 14.925781 22.390625 15.183594 21.808594 L 17.367188 16.953125 L 17.367188 22.523438 L 18.785156 22.523438 L 18.785156 16.953125 C 18.785156 16.410156 18.570312 16.152344 18.113281 16.011719 C 17.042969 15.6875 16.332031 15.96875 16.007812 16.691406 L 13.855469 21.492188 L 11.777344 16.691406 C 11.464844 15.96875 10.738281 15.6875 9.65625 16.011719 C 9.214844 16.152344 9 16.410156 9 16.953125 L 8.996094 22.523438 Z M 19.957031 17.992188 L 21.371094 17.992188 L 21.371094 21.050781 C 21.363281 21.222656 21.425781 21.613281 22.195312 21.625 C 22.597656 21.632812 25.246094 21.625 25.265625 21.625 L 25.265625 17.96875 L 26.683594 17.96875 L 26.683594 22.976562 C 26.683594 24.207031 25.15625 24.480469 24.445312 24.488281 L 19.992188 24.488281 L 19.992188 23.550781 L 24.457031 23.550781 C 25.367188 23.453125 25.257812 22.996094 25.257812 22.847656 L 25.257812 22.476562 L 22.261719 22.476562 C 20.867188 22.46875 19.96875 21.851562 19.957031 21.148438 L 19.957031 17.988281 Z M 50.34375 14.441406 C 49.480469 14.421875 48.808594 14.507812 48.246094 14.746094 C 48.085938 14.8125 47.824219 14.8125 47.804688 15.015625 C 47.890625 15.101562 47.898438 15.242188 47.976562 15.363281 C 48.105469 15.578125 48.332031 15.871094 48.539062 16.023438 C 48.765625 16.195312 48.992188 16.367188 49.230469 16.519531 C 49.652344 16.777344 50.128906 16.929688 50.539062 17.191406 C 50.777344 17.339844 51.015625 17.535156 51.253906 17.699219 C 51.375 17.785156 51.449219 17.925781 51.597656 17.980469 L 51.597656 17.945312 C 51.523438 17.851562 51.5 17.710938 51.425781 17.601562 C 51.316406 17.492188 51.210938 17.394531 51.101562 17.289062 C 50.789062 16.867188 50.398438 16.496094 49.976562 16.195312 C 49.628906 15.957031 48.875 15.632812 48.734375 15.234375 L 48.710938 15.210938 C 48.949219 15.1875 49.230469 15.101562 49.457031 15.039062 C 49.824219 14.941406 50.160156 14.960938 50.539062 14.863281 C 50.710938 14.820312 50.886719 14.769531 51.058594 14.714844 L 51.058594 14.617188 C 50.863281 14.421875 50.722656 14.164062 50.519531 13.980469 C 49.964844 13.503906 49.359375 13.039062 48.734375 12.648438 C 48.398438 12.433594 47.964844 12.292969 47.609375 12.109375 C 47.476562 12.042969 47.261719 12.011719 47.1875 11.902344 C 46.992188 11.664062 46.882812 11.351562 46.742188 11.070312 C 46.429688 10.476562 46.125 9.816406 45.855469 9.1875 C 45.660156 8.765625 45.542969 8.34375 45.304688 7.957031 C 44.191406 6.117188 42.980469 5.003906 41.121094 3.910156 C 40.71875 3.683594 40.242188 3.585938 39.738281 3.46875 L 38.925781 3.421875 C 38.753906 3.347656 38.582031 3.140625 38.429688 3.042969 C 37.8125 2.65625 36.222656 1.8125 35.769531 2.925781 C 35.476562 3.628906 36.203125 4.320312 36.449219 4.679688 C 36.632812 4.925781 36.867188 5.207031 37 5.488281 C 37.070312 5.671875 37.097656 5.867188 37.171875 6.0625 C 37.34375 6.539062 37.507812 7.066406 37.734375 7.511719 C 37.855469 7.738281 37.984375 7.976562 38.132812 8.183594 C 38.222656 8.300781 38.371094 8.355469 38.40625 8.550781 C 38.253906 8.765625 38.242188 9.089844 38.15625 9.359375 C 37.765625 10.582031 37.917969 12.097656 38.46875 12.996094 C 38.644531 13.265625 39.050781 13.859375 39.605469 13.632812 C 40.09375 13.4375 39.984375 12.820312 40.125 12.28125 C 40.15625 12.152344 40.136719 12.066406 40.199219 11.976562 L 40.199219 12 L 40.644531 12.898438 C 40.980469 13.425781 41.5625 13.980469 42.050781 14.347656 C 42.308594 14.542969 42.515625 14.875 42.839844 14.996094 L 42.839844 14.960938 L 42.816406 14.960938 C 42.753906 14.867188 42.65625 14.820312 42.566406 14.746094 C 42.375 14.550781 42.15625 14.3125 42.003906 14.097656 C 41.550781 13.492188 41.152344 12.820312 40.792969 12.128906 C 40.621094 11.792969 40.46875 11.425781 40.328125 11.089844 C 40.265625 10.960938 40.265625 10.765625 40.15625 10.703125 C 39.996094 10.941406 39.757812 11.144531 39.636719 11.4375 C 39.429688 11.902344 39.410156 12.476562 39.335938 13.070312 C 39.292969 13.082031 39.308594 13.070312 39.292969 13.09375 C 38.945312 13.007812 38.824219 12.648438 38.695312 12.347656 C 38.371094 11.578125 38.316406 10.34375 38.597656 9.457031 C 38.675781 9.230469 39 8.519531 38.871094 8.300781 C 38.804688 8.097656 38.589844 7.976562 38.46875 7.816406 C 38.328125 7.609375 38.179688 7.351562 38.082031 7.121094 C 37.820312 6.515625 37.691406 5.847656 37.410156 5.242188 C 37.28125 4.960938 37.054688 4.667969 36.867188 4.410156 C 36.664062 4.117188 36.4375 3.910156 36.273438 3.566406 C 36.21875 3.445312 36.144531 3.25 36.230469 3.121094 C 36.253906 3.035156 36.296875 3.003906 36.382812 2.980469 C 36.523438 2.863281 36.921875 3.011719 37.0625 3.078125 C 37.464844 3.238281 37.800781 3.390625 38.132812 3.617188 C 38.285156 3.726562 38.449219 3.933594 38.644531 3.984375 L 38.871094 3.984375 C 39.214844 4.0625 39.605469 4.007812 39.929688 4.105469 C 40.503906 4.289062 41.019531 4.558594 41.488281 4.851562 C 42.902344 5.75 44.070312 7.023438 44.859375 8.550781 C 44.992188 8.800781 45.042969 9.027344 45.164062 9.285156 C 45.390625 9.816406 45.671875 10.355469 45.898438 10.875 C 46.125 11.382812 46.34375 11.902344 46.667969 12.324219 C 46.828125 12.550781 47.476562 12.671875 47.769531 12.789062 C 47.984375 12.886719 48.320312 12.972656 48.515625 13.09375 C 48.882812 13.320312 49.25 13.578125 49.597656 13.828125 C 49.769531 13.957031 50.3125 14.226562 50.34375 14.445312 Z M 39.316406 5.046875 C 39.167969 5.042969 39.019531 5.0625 38.871094 5.097656 L 38.871094 5.121094 L 38.894531 5.121094 C 38.980469 5.292969 39.132812 5.414062 39.242188 5.566406 L 39.488281 6.082031 L 39.511719 6.0625 C 39.664062 5.953125 39.738281 5.78125 39.738281 5.523438 C 39.671875 5.445312 39.664062 5.371094 39.609375 5.292969 C 39.542969 5.1875 39.402344 5.132812 39.316406 5.046875 Z M 39.316406 5.046875 "/>
<path style=" stroke:none;fill-rule:evenodd;fill:rgb(80.784314%,54.509804%,17.254902%);fill-opacity:1;" d="M 27.765625 22.523438 L 31.832031 22.523438 C 32.304688 22.523438 32.761719 22.425781 33.128906 22.25 C 33.746094 21.96875 34.035156 21.59375 34.035156 21.09375 L 34.035156 20.054688 C 34.035156 19.65625 33.699219 19.277344 33.03125 19.019531 C 32.683594 18.886719 32.253906 18.8125 31.832031 18.8125 L 30.121094 18.8125 C 29.546875 18.8125 29.277344 18.640625 29.203125 18.261719 C 29.191406 18.21875 29.191406 18.175781 29.191406 18.132812 L 29.191406 17.492188 C 29.191406 17.460938 29.191406 17.417969 29.203125 17.375 C 29.277344 17.082031 29.429688 17.007812 29.929688 16.953125 L 34.09375 16.953125 L 34.09375 16.011719 L 30.132812 16.011719 C 29.5625 16.011719 29.257812 16.042969 28.988281 16.128906 C 28.15625 16.390625 27.789062 16.800781 27.789062 17.527344 L 27.789062 18.347656 C 27.789062 18.984375 28.5 19.527344 29.710938 19.65625 C 29.84375 19.667969 29.984375 19.667969 30.125 19.667969 L 31.582031 19.667969 C 31.636719 19.667969 31.691406 19.667969 31.734375 19.679688 C 32.179688 19.722656 32.371094 19.796875 32.503906 19.957031 C 32.589844 20.046875 32.609375 20.121094 32.609375 20.21875 L 32.609375 21.039062 C 32.609375 21.136719 32.546875 21.269531 32.417969 21.375 C 32.285156 21.484375 32.082031 21.558594 31.808594 21.570312 C 31.757812 21.570312 31.722656 21.582031 31.667969 21.582031 L 27.765625 21.582031 Z M 42.839844 20.890625 C 42.839844 21.851562 43.566406 22.390625 45.011719 22.5 C 45.152344 22.511719 45.285156 22.523438 45.425781 22.523438 L 49.101562 22.523438 L 49.101562 21.582031 L 45.390625 21.582031 C 44.570312 21.582031 44.257812 21.375 44.257812 20.878906 L 44.257812 16.011719 L 42.835938 16.011719 L 42.835938 20.890625 Z M 34.933594 20.933594 L 34.933594 17.578125 C 34.933594 16.726562 35.539062 16.207031 36.71875 16.042969 C 36.847656 16.03125 36.976562 16.023438 37.097656 16.023438 L 39.777344 16.023438 C 39.917969 16.023438 40.039062 16.03125 40.179688 16.042969 C 41.355469 16.207031 41.953125 16.726562 41.953125 17.578125 L 41.953125 20.933594 C 41.953125 21.625 41.703125 21.992188 41.117188 22.242188 L 42.503906 23.496094 L 40.871094 23.496094 L 39.746094 22.476562 L 38.609375 22.542969 L 37.097656 22.542969 C 36.820312 22.542969 36.542969 22.503906 36.273438 22.433594 C 35.378906 22.1875 34.933594 21.710938 34.933594 20.933594 Z M 36.457031 20.855469 C 36.457031 20.898438 36.484375 20.941406 36.492188 20.996094 C 36.566406 21.386719 36.933594 21.601562 37.496094 21.601562 L 38.773438 21.601562 L 37.605469 20.542969 L 39.238281 20.542969 L 40.265625 21.472656 C 40.460938 21.363281 40.578125 21.214844 40.621094 21.019531 C 40.632812 20.976562 40.632812 20.921875 40.632812 20.878906 L 40.632812 17.664062 C 40.632812 17.621094 40.632812 17.578125 40.621094 17.535156 C 40.546875 17.167969 40.179688 16.964844 39.628906 16.964844 L 37.496094 16.964844 C 36.871094 16.964844 36.457031 17.234375 36.457031 17.664062 Z M 36.457031 20.855469 "/>
</g>
</svg>
