<?xml version="1.0" encoding="UTF-8"?>
<svg xmlns="http://www.w3.org/2000/svg" xmlns:xlink="http://www.w3.org/1999/xlink" width="px" height="px" viewBox="0 0 80 30" version="1.1">
<g id="surface1">
<path style=" stroke:none;fill-rule:nonzero;fill:rgb(51.372549%,80.392157%,16.078431%);fill-opacity:1;" d="M 69.714844 12.097656 C 69.542969 12.097656 69.378906 12.132812 69.230469 12.214844 L 64.5625 14.929688 C 64.261719 15.101562 64.078125 15.433594 64.078125 15.785156 L 64.078125 21.199219 C 64.078125 21.550781 64.261719 21.882812 64.5625 22.058594 L 65.78125 22.761719 C 66.375 23.058594 66.59375 23.050781 66.863281 23.050781 C 67.738281 23.050781 68.238281 22.515625 68.238281 21.585938 L 68.238281 16.246094 C 68.238281 16.171875 68.175781 16.117188 68.101562 16.117188 L 67.515625 16.117188 C 67.441406 16.117188 67.378906 16.171875 67.378906 16.246094 L 67.378906 21.589844 C 67.378906 22 66.953125 22.417969 66.257812 22.066406 L 64.992188 21.320312 C 64.945312 21.296875 64.914062 21.25 64.914062 21.199219 L 64.914062 15.789062 C 64.914062 15.734375 64.945312 15.683594 64.992188 15.65625 L 69.648438 12.957031 C 69.691406 12.929688 69.742188 12.929688 69.789062 12.957031 L 74.445312 15.65625 C 74.488281 15.683594 74.523438 15.734375 74.523438 15.789062 L 74.523438 21.199219 C 74.523438 21.253906 74.496094 21.304688 74.453125 21.332031 L 69.789062 24.03125 C 69.746094 24.054688 69.691406 24.054688 69.648438 24.03125 L 68.449219 23.316406 C 68.414062 23.292969 68.367188 23.296875 68.332031 23.316406 C 68 23.503906 67.9375 23.523438 67.628906 23.632812 C 67.550781 23.660156 67.433594 23.703125 67.667969 23.832031 L 69.234375 24.761719 C 69.382812 24.847656 69.546875 24.890625 69.71875 24.890625 C 69.890625 24.890625 70.054688 24.847656 70.203125 24.761719 L 74.871094 22.058594 C 75.171875 21.882812 75.355469 21.554688 75.355469 21.203125 L 75.355469 15.789062 C 75.355469 15.4375 75.171875 15.105469 74.871094 14.929688 L 70.203125 12.21875 C 70.058594 12.136719 69.890625 12.101562 69.71875 12.101562 Z M 70.964844 15.964844 C 69.636719 15.964844 68.84375 16.535156 68.84375 17.480469 C 68.84375 18.507812 69.628906 18.789062 70.90625 18.917969 C 72.429688 19.066406 72.550781 19.292969 72.550781 19.59375 C 72.550781 20.117188 72.136719 20.34375 71.152344 20.34375 C 69.917969 20.34375 69.648438 20.03125 69.558594 19.414062 C 69.546875 19.347656 69.496094 19.292969 69.429688 19.292969 L 68.824219 19.292969 C 68.746094 19.296875 68.6875 19.355469 68.683594 19.433594 C 68.683594 20.222656 69.113281 21.160156 71.152344 21.160156 C 72.628906 21.160156 73.480469 20.578125 73.480469 19.554688 C 73.480469 18.542969 72.792969 18.269531 71.359375 18.078125 C 69.914062 17.882812 69.773438 17.789062 69.773438 17.449219 C 69.773438 17.167969 69.890625 16.792969 70.964844 16.792969 C 71.921875 16.792969 72.273438 17 72.421875 17.648438 C 72.433594 17.710938 72.484375 17.757812 72.546875 17.757812 L 73.15625 17.757812 C 73.191406 17.757812 73.226562 17.738281 73.253906 17.710938 C 73.277344 17.679688 73.296875 17.648438 73.292969 17.609375 C 73.199219 16.492188 72.457031 15.964844 70.964844 15.964844 Z M 70.964844 15.964844 "/>
<path style=" stroke:none;fill-rule:nonzero;fill:rgb(25.098039%,25.490196%,21.568627%);fill-opacity:1;" d="M 42.28125 5 C 42.230469 5 42.179688 5.015625 42.132812 5.039062 C 42.042969 5.09375 41.984375 5.191406 41.984375 5.300781 L 41.984375 12.925781 C 41.984375 13 41.949219 13.066406 41.886719 13.105469 C 41.820312 13.144531 41.742188 13.144531 41.675781 13.105469 L 40.4375 12.386719 C 40.253906 12.28125 40.027344 12.28125 39.84375 12.386719 L 34.902344 15.257812 C 34.714844 15.367188 34.601562 15.574219 34.601562 15.789062 L 34.601562 21.53125 C 34.601562 21.742188 34.714844 21.941406 34.898438 22.046875 L 39.84375 24.917969 C 40.027344 25.027344 40.253906 25.027344 40.4375 24.917969 L 45.382812 22.046875 C 45.566406 21.941406 45.679688 21.742188 45.679688 21.53125 L 45.679688 7.214844 C 45.679688 6.996094 45.5625 6.792969 45.371094 6.683594 L 42.429688 5.03125 C 42.382812 5.003906 42.332031 5 42.28125 5 Z M 10.476562 12.167969 C 10.382812 12.171875 10.292969 12.1875 10.210938 12.238281 L 5.265625 15.109375 C 5.082031 15.214844 4.96875 15.414062 4.96875 15.628906 L 4.980469 23.335938 C 4.980469 23.441406 5.035156 23.542969 5.128906 23.59375 C 5.21875 23.648438 5.332031 23.648438 5.425781 23.59375 L 8.359375 21.898438 C 8.542969 21.789062 8.664062 21.59375 8.664062 21.378906 L 8.664062 17.78125 C 8.664062 17.566406 8.777344 17.371094 8.960938 17.261719 L 10.210938 16.535156 C 10.300781 16.484375 10.402344 16.453125 10.507812 16.457031 C 10.613281 16.453125 10.714844 16.484375 10.804688 16.535156 L 12.054688 17.261719 C 12.238281 17.371094 12.351562 17.566406 12.351562 17.78125 L 12.351562 21.378906 C 12.351562 21.59375 12.472656 21.789062 12.65625 21.898438 L 15.589844 23.59375 C 15.683594 23.648438 15.796875 23.648438 15.886719 23.59375 C 15.976562 23.539062 16.035156 23.441406 16.035156 23.332031 L 16.046875 15.628906 C 16.046875 15.414062 15.933594 15.214844 15.75 15.109375 L 10.804688 12.238281 C 10.722656 12.1875 10.632812 12.171875 10.535156 12.167969 Z M 54.902344 12.238281 C 54.800781 12.238281 54.695312 12.265625 54.605469 12.316406 L 49.664062 15.1875 C 49.476562 15.296875 49.367188 15.492188 49.367188 15.707031 L 49.367188 21.449219 C 49.367188 21.664062 49.484375 21.863281 49.671875 21.96875 L 54.578125 24.78125 C 54.757812 24.886719 54.980469 24.894531 55.160156 24.789062 L 58.132812 23.125 C 58.226562 23.074219 58.292969 22.976562 58.292969 22.867188 C 58.292969 22.757812 58.238281 22.660156 58.144531 22.609375 L 53.167969 19.734375 C 53.078125 19.683594 53.011719 19.574219 53.011719 19.46875 L 53.011719 17.671875 C 53.011719 17.5625 53.078125 17.464844 53.167969 17.414062 L 54.714844 16.515625 C 54.808594 16.460938 54.917969 16.460938 55.011719 16.515625 L 56.558594 17.414062 C 56.652344 17.464844 56.707031 17.5625 56.707031 17.671875 L 56.707031 19.085938 C 56.707031 19.195312 56.765625 19.292969 56.855469 19.347656 C 56.949219 19.398438 57.0625 19.398438 57.152344 19.347656 L 60.117188 17.613281 C 60.300781 17.503906 60.414062 17.308594 60.414062 17.09375 L 60.414062 15.707031 C 60.414062 15.492188 60.300781 15.296875 60.117188 15.191406 L 55.203125 12.316406 C 55.109375 12.265625 55.007812 12.238281 54.902344 12.238281 Z M 40.121094 16.523438 C 40.148438 16.523438 40.175781 16.53125 40.199219 16.546875 L 41.894531 17.53125 C 41.941406 17.558594 41.972656 17.609375 41.972656 17.660156 L 41.972656 19.636719 C 41.972656 19.6875 41.941406 19.738281 41.894531 19.765625 L 40.199219 20.753906 C 40.15625 20.777344 40.097656 20.777344 40.050781 20.753906 L 38.359375 19.765625 C 38.3125 19.738281 38.277344 19.6875 38.277344 19.636719 L 38.277344 17.660156 C 38.277344 17.609375 38.3125 17.558594 38.359375 17.53125 L 40.050781 16.546875 C 40.074219 16.53125 40.09375 16.523438 40.121094 16.523438 Z M 40.121094 16.523438 "/>
<path style=" stroke:none;fill-rule:nonzero;fill:rgb(51.372549%,80.392157%,16.078431%);fill-opacity:1;" d="M 25.328125 12.207031 C 25.226562 12.207031 25.121094 12.234375 25.03125 12.289062 L 20.089844 15.148438 C 19.902344 15.257812 19.789062 15.464844 19.789062 15.675781 L 19.789062 21.421875 C 19.789062 21.632812 19.902344 21.832031 20.089844 21.9375 L 25.03125 24.808594 C 25.214844 24.917969 25.441406 24.917969 25.625 24.808594 L 30.570312 21.9375 C 30.753906 21.832031 30.867188 21.632812 30.867188 21.421875 L 30.867188 15.675781 C 30.867188 15.460938 30.753906 15.257812 30.570312 15.148438 L 25.625 12.289062 C 25.535156 12.234375 25.433594 12.207031 25.328125 12.207031 Z M 54.894531 17.332031 C 54.875 17.332031 54.851562 17.332031 54.835938 17.34375 L 53.882812 17.902344 C 53.847656 17.921875 53.824219 17.957031 53.824219 18 L 53.824219 19.097656 C 53.824219 19.136719 53.847656 19.175781 53.882812 19.195312 L 54.835938 19.746094 C 54.867188 19.765625 54.910156 19.765625 54.945312 19.746094 L 55.894531 19.195312 C 55.929688 19.175781 55.953125 19.136719 55.953125 19.097656 L 55.953125 18 C 55.953125 17.960938 55.929688 17.921875 55.894531 17.902344 L 54.945312 17.34375 C 54.925781 17.332031 54.914062 17.332031 54.894531 17.332031 Z M 54.894531 17.332031 "/>
</g>
</svg>
