<?xml version="1.0" encoding="UTF-8"?>
<svg xmlns="http://www.w3.org/2000/svg" xmlns:xlink="http://www.w3.org/1999/xlink" width="px" height="px" viewBox="0 0 60 30" version="1.1">
<g id="surface1">
<path style=" stroke:none;fill-rule:nonzero;fill:rgb(18.431373%,25.098039%,41.568627%);fill-opacity:1;" d="M 15.777344 11.757812 L 15.777344 18.207031 L 10.296875 21.425781 L 10.246094 21.472656 L 10.246094 23.90625 L 10.296875 23.953125 L 18.011719 19.496094 L 18.011719 10.503906 L 17.9375 10.503906 L 15.761719 11.722656 L 15.761719 11.773438 "/>
<path style=" stroke:none;fill-rule:nonzero;fill:rgb(13.72549%,47.45098%,74.117647%);fill-opacity:1;" d="M 4.796875 18.261719 L 10.304688 21.449219 L 10.304688 23.953125 L 2.523438 19.476562 L 2.523438 10.523438 L 2.601562 10.523438 L 4.773438 11.785156 L 4.796875 11.859375 L 4.796875 18.289062 "/>
<path style=" stroke:none;fill-rule:nonzero;fill:rgb(1.176471%,68.627451%,93.72549%);fill-opacity:1;" d="M 4.796875 11.847656 L 2.5 10.523438 L 10.277344 6.046875 L 18.011719 10.507812 L 15.777344 11.757812 L 10.269531 8.625 L 4.785156 11.839844 "/>
<path style=" stroke:none;fill-rule:nonzero;fill:rgb(18.431373%,25.098039%,41.568627%);fill-opacity:1;" d="M 10.199219 17.519531 L 10.140625 17.460938 L 10.140625 15.039062 L 10.199219 15.007812 L 10.199219 14.949219 L 12.273438 13.734375 L 12.339844 13.734375 L 12.339844 16.234375 L 10.1875 17.511719 "/>
<path style=" stroke:none;fill-rule:nonzero;fill:rgb(13.72549%,47.45098%,74.117647%);fill-opacity:1;" d="M 8.007812 16.328125 L 8.007812 13.734375 L 8.070312 13.734375 L 10.179688 14.964844 L 10.179688 17.523438 L 7.992188 16.328125 "/>
<path style=" stroke:none;fill-rule:nonzero;fill:rgb(1.176471%,68.627451%,93.72549%);fill-opacity:1;" d="M 10.164062 12.460938 L 8.007812 13.738281 L 10.199219 15 L 12.351562 13.742188 L 10.160156 12.445312 "/>
<path style=" stroke:none;fill-rule:nonzero;fill:rgb(18.431373%,25.098039%,41.568627%);fill-opacity:1;" d="M 7.519531 19.105469 L 7.457031 19.046875 L 7.457031 16.621094 L 7.519531 16.589844 L 7.519531 16.527344 L 9.59375 15.316406 L 9.65625 15.316406 L 9.65625 17.8125 L 7.503906 19.089844 "/>
<path style=" stroke:none;fill-rule:nonzero;fill:rgb(13.72549%,47.45098%,74.117647%);fill-opacity:1;" d="M 5.328125 17.90625 L 5.328125 15.3125 L 5.386719 15.3125 L 7.5 16.542969 L 7.5 19.105469 L 5.328125 17.90625 "/>
<path style=" stroke:none;fill-rule:nonzero;fill:rgb(1.176471%,68.627451%,93.72549%);fill-opacity:1;" d="M 7.484375 14.039062 L 5.328125 15.3125 L 7.519531 16.589844 L 9.671875 15.328125 L 7.480469 14.035156 "/>
<path style=" stroke:none;fill-rule:nonzero;fill:rgb(18.431373%,25.098039%,41.568627%);fill-opacity:1;" d="M 13.074219 19.164062 L 13.011719 19.105469 L 13.011719 16.679688 L 13.074219 16.648438 L 13.074219 16.589844 L 15.148438 15.375 L 15.214844 15.375 L 15.214844 17.875 L 13.058594 19.148438 "/>
<path style=" stroke:none;fill-rule:nonzero;fill:rgb(13.72549%,47.45098%,74.117647%);fill-opacity:1;" d="M 10.882812 17.964844 L 10.882812 15.371094 L 10.953125 15.371094 L 13.0625 16.601562 L 13.0625 19.164062 L 10.875 17.964844 "/>
<path style=" stroke:none;fill-rule:nonzero;fill:rgb(1.176471%,68.627451%,93.72549%);fill-opacity:1;" d="M 13.035156 14.082031 L 10.882812 15.359375 L 13.074219 16.636719 L 15.226562 15.378906 L 13.035156 14.082031 "/>
<path style=" stroke:none;fill-rule:nonzero;fill:rgb(18.431373%,25.098039%,41.568627%);fill-opacity:1;" d="M 10.390625 20.742188 L 10.332031 20.683594 L 10.332031 18.261719 L 10.390625 18.226562 L 10.390625 18.167969 L 12.46875 16.957031 L 12.53125 16.957031 L 12.53125 19.453125 L 10.378906 20.730469 "/>
<path style=" stroke:none;fill-rule:nonzero;fill:rgb(13.72549%,47.45098%,74.117647%);fill-opacity:1;" d="M 8.199219 19.550781 L 8.199219 16.960938 L 8.257812 16.960938 L 10.371094 18.191406 L 10.371094 20.753906 L 8.199219 19.550781 "/>
<path style=" stroke:none;fill-rule:nonzero;fill:rgb(1.176471%,68.627451%,93.72549%);fill-opacity:1;" d="M 10.351562 15.679688 L 8.191406 16.957031 L 10.386719 18.214844 L 12.539062 16.957031 L 10.351562 15.679688 "/>
<path style=" stroke:none;fill-rule:nonzero;fill:rgb(18.431373%,25.098039%,41.568627%);fill-opacity:1;" d="M 10.199219 14.082031 L 10.140625 14.023438 L 10.140625 11.605469 L 10.199219 11.574219 L 10.199219 11.515625 L 12.273438 10.304688 L 12.339844 10.304688 L 12.339844 12.800781 L 10.199219 14.082031 "/>
<path style=" stroke:none;fill-rule:nonzero;fill:rgb(13.72549%,47.45098%,74.117647%);fill-opacity:1;" d="M 8.007812 12.890625 L 8.007812 10.296875 L 8.070312 10.296875 L 10.179688 11.527344 L 10.179688 14.082031 L 7.992188 12.882812 "/>
<path style=" stroke:none;fill-rule:nonzero;fill:rgb(1.176471%,68.627451%,93.72549%);fill-opacity:1;" d="M 10.164062 9.03125 L 8.007812 10.308594 L 10.199219 11.585938 L 12.351562 10.328125 L 10.164062 9.03125 "/>
<path style=" stroke:none;fill-rule:nonzero;fill:rgb(18.431373%,25.098039%,41.568627%);fill-opacity:1;" d="M 7.519531 15.664062 L 7.457031 15.605469 L 7.457031 13.164062 L 7.519531 13.128906 L 7.519531 13.070312 L 9.59375 11.859375 L 9.65625 11.859375 L 9.65625 14.355469 L 7.503906 15.632812 "/>
<path style=" stroke:none;fill-rule:nonzero;fill:rgb(13.72549%,47.45098%,74.117647%);fill-opacity:1;" d="M 5.328125 14.472656 L 5.328125 11.878906 L 5.386719 11.878906 L 7.5 13.109375 L 7.5 15.671875 L 5.328125 14.472656 "/>
<path style=" stroke:none;fill-rule:nonzero;fill:rgb(1.176471%,68.627451%,93.72549%);fill-opacity:1;" d="M 7.484375 10.605469 L 5.328125 11.878906 L 7.519531 13.164062 L 9.671875 11.90625 L 7.480469 10.609375 "/>
<path style=" stroke:none;fill-rule:nonzero;fill:rgb(18.431373%,25.098039%,41.568627%);fill-opacity:1;" d="M 13.074219 15.726562 L 13.011719 15.664062 L 13.011719 13.246094 L 13.074219 13.214844 L 13.074219 13.152344 L 15.148438 11.941406 L 15.214844 11.941406 L 15.214844 14.4375 L 13.058594 15.714844 "/>
<path style=" stroke:none;fill-rule:nonzero;fill:rgb(13.72549%,47.45098%,74.117647%);fill-opacity:1;" d="M 10.882812 14.539062 L 10.882812 11.9375 L 10.953125 11.9375 L 13.054688 13.164062 L 13.054688 15.726562 L 10.882812 14.539062 "/>
<path style=" stroke:none;fill-rule:nonzero;fill:rgb(1.176471%,68.627451%,93.72549%);fill-opacity:1;" d="M 13.035156 10.664062 L 10.882812 11.941406 L 13.074219 13.21875 L 15.226562 11.960938 L 13.035156 10.664062 "/>
<path style=" stroke:none;fill-rule:nonzero;fill:rgb(18.431373%,25.098039%,41.568627%);fill-opacity:1;" d="M 10.390625 17.296875 L 10.332031 17.234375 L 10.332031 14.824219 L 10.390625 14.792969 L 10.390625 14.734375 L 12.46875 13.519531 L 12.53125 13.519531 L 12.53125 16.019531 L 10.390625 17.296875 "/>
<path style=" stroke:none;fill-rule:nonzero;fill:rgb(13.72549%,47.45098%,74.117647%);fill-opacity:1;" d="M 8.199219 16.109375 L 8.199219 13.515625 L 8.257812 13.515625 L 10.371094 14.746094 L 10.371094 17.296875 L 8.199219 16.109375 "/>
<path style=" stroke:none;fill-rule:nonzero;fill:rgb(1.176471%,68.627451%,93.72549%);fill-opacity:1;" d="M 10.351562 12.246094 L 8.191406 13.515625 L 10.382812 14.792969 L 12.535156 13.535156 L 10.351562 12.246094 "/>
<path style=" stroke:none;fill-rule:nonzero;fill:rgb(18.431373%,25.098039%,41.568627%);fill-opacity:1;" d="M 21.886719 11.585938 C 20.925781 11.585938 20.441406 11.949219 20.441406 12.671875 C 20.398438 12.988281 20.523438 13.304688 20.773438 13.507812 C 21.195312 13.734375 21.648438 13.886719 22.121094 13.96875 C 22.640625 14.046875 23.132812 14.242188 23.5625 14.539062 C 23.875 14.855469 24.027344 15.289062 23.984375 15.730469 C 23.984375 17.097656 23.277344 17.78125 21.855469 17.78125 C 21.265625 17.769531 20.675781 17.714844 20.09375 17.617188 L 19.742188 17.570312 L 19.820312 16.957031 C 20.484375 17.054688 21.152344 17.113281 21.820312 17.132812 C 22.769531 17.132812 23.246094 16.683594 23.246094 15.789062 C 23.277344 15.492188 23.160156 15.199219 22.933594 15 C 22.574219 14.789062 22.179688 14.652344 21.765625 14.601562 C 21.191406 14.515625 20.644531 14.304688 20.164062 13.980469 C 19.8125 13.652344 19.632812 13.183594 19.675781 12.703125 C 19.675781 11.503906 20.390625 10.90625 21.824219 10.90625 C 22.390625 10.910156 22.953125 10.953125 23.515625 11.046875 L 23.839844 11.097656 L 23.808594 11.738281 C 23.171875 11.652344 22.53125 11.597656 21.890625 11.578125 Z M 28.425781 17.109375 L 28.703125 17.078125 L 28.703125 17.648438 C 28.082031 17.746094 27.453125 17.796875 26.824219 17.804688 C 26.261719 17.863281 25.710938 17.636719 25.347656 17.203125 C 25.015625 16.640625 24.863281 15.984375 24.914062 15.332031 C 24.914062 13.640625 25.585938 12.796875 26.929688 12.796875 C 27.472656 12.75 28.011719 12.945312 28.398438 13.335938 C 28.757812 13.828125 28.929688 14.4375 28.878906 15.046875 L 28.855469 15.59375 L 25.664062 15.59375 C 25.632812 16.007812 25.734375 16.421875 25.953125 16.777344 C 26.207031 17.0625 26.582031 17.203125 26.960938 17.164062 C 27.441406 17.164062 27.929688 17.148438 28.425781 17.113281 Z M 28.164062 15 C 28.203125 14.5625 28.101562 14.125 27.878906 13.746094 C 27.648438 13.484375 27.308594 13.347656 26.960938 13.378906 C 26.597656 13.351562 26.242188 13.496094 25.996094 13.765625 C 25.742188 14.125 25.617188 14.558594 25.644531 15 Z M 31.613281 17.800781 C 31.085938 17.847656 30.574219 17.632812 30.234375 17.230469 C 29.90625 16.644531 29.757812 15.972656 29.816406 15.300781 C 29.753906 14.617188 29.929688 13.933594 30.316406 13.363281 C 30.648438 12.980469 31.238281 12.785156 32.089844 12.785156 L 33.699219 12.882812 L 33.699219 19.84375 L 32.988281 19.84375 L 32.988281 17.484375 C 32.558594 17.691406 32.089844 17.800781 31.609375 17.800781 Z M 32.070312 13.410156 C 31.609375 13.351562 31.152344 13.523438 30.839844 13.871094 C 30.589844 14.308594 30.480469 14.808594 30.519531 15.3125 C 30.484375 15.800781 30.574219 16.289062 30.785156 16.730469 C 30.980469 17.023438 31.324219 17.1875 31.675781 17.15625 C 32.054688 17.15625 32.433594 17.085938 32.785156 16.945312 L 32.960938 16.878906 L 32.960938 13.46875 C 32.574219 13.4375 32.277344 13.421875 32.070312 13.421875 Z M 38.09375 12.882812 L 38.820312 12.882812 L 38.820312 17.703125 L 38.09375 17.703125 L 38.09375 17.367188 C 37.664062 17.640625 37.167969 17.792969 36.660156 17.800781 C 36.007812 17.800781 35.570312 17.628906 35.351562 17.289062 C 35.089844 16.695312 34.976562 16.046875 35.03125 15.398438 L 35.03125 12.882812 L 35.742188 12.882812 L 35.742188 15.390625 C 35.707031 15.867188 35.769531 16.347656 35.925781 16.796875 C 36.050781 17.039062 36.324219 17.15625 36.757812 17.15625 C 36.976562 17.15625 37.195312 17.125 37.40625 17.066406 C 37.578125 17.019531 37.742188 16.960938 37.90625 16.886719 L 38.078125 16.796875 Z M 43.484375 17.109375 L 43.765625 17.078125 L 43.765625 17.648438 C 43.140625 17.746094 42.511719 17.796875 41.882812 17.804688 C 41.320312 17.863281 40.769531 17.636719 40.40625 17.203125 C 40.074219 16.640625 39.921875 15.984375 39.972656 15.332031 C 39.972656 13.640625 40.644531 12.796875 41.988281 12.796875 C 42.527344 12.753906 43.0625 12.953125 43.4375 13.34375 C 43.800781 13.839844 43.96875 14.445312 43.917969 15.054688 L 43.882812 15.609375 L 40.726562 15.609375 C 40.695312 16.023438 40.796875 16.4375 41.015625 16.792969 C 41.269531 17.074219 41.640625 17.21875 42.019531 17.179688 C 42.5 17.167969 42.988281 17.144531 43.484375 17.109375 Z M 43.222656 15 C 43.261719 14.5625 43.164062 14.125 42.9375 13.746094 C 42.707031 13.484375 42.367188 13.347656 42.019531 13.378906 C 41.65625 13.351562 41.300781 13.496094 41.054688 13.765625 C 40.804688 14.125 40.6875 14.5625 40.714844 15 Z M 45.132812 17.703125 L 45.132812 10.78125 L 45.84375 10.78125 L 45.84375 17.703125 Z M 47.300781 11.785156 L 47.300781 10.949219 L 48.019531 10.949219 L 48.019531 11.78125 Z M 47.300781 17.695312 L 47.300781 12.882812 L 48.019531 12.882812 L 48.019531 17.703125 Z M 49.121094 13.53125 L 49.121094 12.882812 L 52.699219 12.882812 L 52.699219 13.53125 L 49.996094 17.0625 L 52.699219 17.0625 L 52.699219 17.707031 L 49.121094 17.707031 L 49.121094 17.054688 L 51.8125 13.53125 Z M 57.050781 17.109375 L 57.328125 17.078125 L 57.328125 17.648438 C 56.707031 17.746094 56.078125 17.796875 55.449219 17.804688 C 54.886719 17.863281 54.335938 17.636719 53.972656 17.203125 C 53.640625 16.640625 53.488281 15.984375 53.539062 15.332031 C 53.539062 13.640625 54.210938 12.796875 55.554688 12.796875 C 56.09375 12.753906 56.628906 12.953125 57.003906 13.34375 C 57.363281 13.839844 57.535156 14.445312 57.484375 15.054688 L 57.449219 15.609375 L 54.285156 15.609375 C 54.253906 16.023438 54.355469 16.4375 54.574219 16.792969 C 54.828125 17.074219 55.203125 17.21875 55.578125 17.179688 C 56.0625 17.167969 56.550781 17.144531 57.046875 17.109375 Z M 56.789062 15 C 56.828125 14.5625 56.726562 14.125 56.503906 13.746094 C 56.273438 13.484375 55.933594 13.347656 55.585938 13.378906 C 55.222656 13.351562 54.867188 13.496094 54.621094 13.765625 C 54.375 14.128906 54.257812 14.5625 54.292969 15 Z M 56.789062 15 "/>
</g>
</svg>
